<svg width="64" height="65" viewBox="0 0 64 65" fill="none" xmlns="http://www.w3.org/2000/svg">
<rect y="0.5" width="64" height="64" rx="32" fill="#203FC7" fill-opacity="0.2"/>
<path d="M44 23.5C44.87 23.5 45.575 23.8 46.13 24.385C46.7 25 47 25.675 47 26.5V43C47 43.825 46.7 44.5 46.13 45.115C45.575 45.7 44.87 46 44 46H20C19.13 46 18.425 45.7 17.87 45.115C17.3 44.5 17 43.825 17 43V26.5C17 25.675 17.3 25 17.87 24.385C18.425 23.8 19.13 23.5 20 23.5H26V20.5C26 19.63 26.3 18.925 26.87 18.37C27.425 17.8 28.13 17.5 29 17.5H35C35.87 17.5 36.575 17.8 37.13 18.37C37.7 18.925 38 19.63 38 20.5V23.5H44ZM20 26.5V43H44V26.5H20ZM35 23.5V20.5H29V23.5H35Z" fill="#203FC7"/>
</svg>

